<svg xmlns="http://www.w3.org/2000/svg" xml:space="preserve" style="enable-background:new -194 72.3 452 452" viewBox="-194 72.3 452 452">
  <style>
    .st0{fill:#49a4a3}
  </style>
  <g id="dulli">
    <path d="M-114.2 158.9c-18.2 19-32.6 41.6-42.3 66.6-1.9 5-3.6 10-5.2 15.1 0 .1-.1.3-.1.4-.4 1.2-.7 2.4-1 3.6 0 .1-.1.2-.1.3-1.8 6.5-3.2 13.1-4.3 19.8v.2c-1.3 8.2-2.2 16.5-2.5 25-.1 2.7-.2 5.5-.2 8.2 0 23.3 3.9 45.6 11.2 66.4 3.9 11.3 8.9 22.2 14.6 32.4.7 1.3 1.4 2.5 2.2 3.7 0 .1.1.1.1.2.7 1.2 1.5 2.4 2.2 3.7 0 0 0 .1.1.1 7 11.2 15.1 21.7 24.1 31.3 1 1 2 2.1 3 3.1l.1.1 3 3c10.5 10.2 22 19.4 34.5 27.2h.1c1.2.8 2.5 1.5 3.7 2.3 22.4 13.3 47.5 22.4 74.4 26.2 25.7-22 46-51 57.5-85.5C94.6 311.7 40 202.4-61.1 168.7c-17.6-5.9-35.4-9.1-53.1-9.8zM8.6 351.7c0 25.7-7.4 49.6-20.2 69.9-43.5-15.4-76.4-53.2-84.9-99.5 21.6-21.8 38.3-48.4 48.3-78.2 34.3 23.5 56.8 63 56.8 107.8z" class="st0"/>
    <path d="M66.3 424.4c55.5-15.1 96.4-65.9 96.4-126.2 0-72.2-58.5-130.7-130.7-130.7-18.1 0-35.4 3.7-51.1 10.4-12.1-7.2-25.2-13.2-39.1-17.8-15.7-5.2-31.5-8.4-47.3-9.7 16.5-15.3 35.6-28 56.5-37.1 1.5-.7 3.1-1.3 4.7-2h.1c1.5-.6 3.1-1.2 4.6-1.8 0 0 .1 0 .1-.1 1.5-.6 3.1-1.1 4.6-1.7.1 0 .2-.1.2-.1l4.5-1.5c.1 0 .2-.1.4-.1 1.5-.5 3-.9 4.5-1.4.2 0 .3-.1.5-.1 1.4-.4 2.9-.8 4.4-1.2.2-.1.4-.1.6-.2 1.4-.4 2.8-.7 4.3-1.1.3-.1.5-.1.8-.2 1.4-.3 2.7-.6 4.1-.9.3-.1.6-.1.9-.2 1.3-.3 2.7-.5 4-.8.4-.1.7-.1 1.1-.2 1.3-.2 2.6-.5 3.9-.7.4-.1.8-.1 1.3-.2 1.2-.2 2.5-.4 3.8-.5.4-.2.8-.3 1.3-.3 1.2-.2 2.4-.3 3.7-.4.5-.1 1-.1 1.6-.2l3.6-.3c.5 0 1.1-.1 1.6-.1 1.2-.1 2.4-.2 3.6-.2.6 0 1.1-.1 1.7-.1 1.2-.1 2.5-.1 3.7-.1.5 0 1 0 1.6-.1 1.8 0 3.5-.1 5.3-.1 111.6 0 202 90.4 202 202s-90.4 202-202 202c-1.6 0-3.1 0-4.7-.1-.7 0-1.4 0-2.1-.1-.8 0-1.6-.1-2.4-.1-.9 0-1.8-.1-2.8-.1-.5 0-1-.1-1.4-.1-1.1-.1-2.1-.1-3.2-.2 21.8-20.4 39.5-45.8 50.8-75.3" class="st0"/>
  </g>
</svg>
