<svg xmlns="http://www.w3.org/2000/svg" xml:space="preserve" viewBox="0 0 196 196">
  <style>
    #b {fill: #49a4a3}
    #c {fill: #49a4a3}
    #l path {fill:#fff}
  </style>
    <g id="logo">
        <circle id="b" data-name="Outline" cx="93.35" cy="93.35" r="93"/>
        <path id="c" d="M93.26,5.52C44.66,5.52,5.26,44.91,5.26,93.52s39.4,88,88,88,88-39.4,88-88S141.86,5.52,93.26,5.52Zm0,140c-28.72,0-52-23.28-52-52s23.28-52,52-52,52,23.28,52,52-23.28,52-52,52Z"/>
        <g id="l">
            <path id="f" fill="currentColor" d="M69.66,139.85c-12.01-6.13-21.31-16.79-25.67-29.73-9.53,7.33-20.52,12.85-32.46,16.05,6.12,15.31,16.43,28.5,29.5,38.15,12.6-3.82,22.97-12.8,28.64-24.48Z"/>
            <path id="d" fill="currentColor" d="M93.35,5.35c-21.98,0-42.08,8.06-57.51,21.39,16.47,1.49,31.71,7.28,44.57,16.23,4.14-1.06,8.47-1.62,12.94-1.62,28.72,0,52,23.28,52,52,0,19.69-10.95,36.82-27.09,45.65-3.45,16.01-11.01,30.49-21.54,42.28,47.04-1.77,84.63-40.46,84.63-87.93S141.96,5.35,93.35,5.35Z"/>
            <path id="m" fill="currentColor" d="M30.84,31.43c-4.27,4.31-8.09,9.07-11.4,14.18-.24,.37-.48,.75-.72,1.12-.15,.24-.3,.48-.45,.73-8.24,13.4-13.01,29.16-13.01,46.05,0,9.77,1.62,19.16,4.56,27.94,22.5-5.92,41.46-20.53,53.11-40.02,10.11,9.49,16.43,22.96,16.43,37.91,0,22.01-13.68,40.81-32.99,48.4,12.68,8.02,27.55,12.91,43.51,13.53,15.75-15.9,25.48-37.78,25.48-61.93,0-47.43-37.53-86.1-84.52-87.93Z"/>
        </g>
    </g>
</svg>
